# xmcd
#
# Track frame offsets: 
#        150
#        8100
#        12667
#        21336
#        25986
#        34686
#        42239
#        51839
#        55964
#        63353
#        69022
#        76671
#        84367
#        95147
#        103847
#        115017
#        122713
#        133487
#        139679
#        149279
#        157679
#        168921
#        173227
#        179306
#        188742
#        201042
#        209442
#        221190
#        228886
#        239666
#        246766
#        257546
#        263579
#        271612
#        280012
#        290792
#        294713
#        300563
#        305313
#        313078
#        320774
#        330734
#        338197
#
# Disc length: 4638 seconds
#
# Revision: 0
# Processed by: cddbd v1.5.2PL0 Copyright (c) Steve Scherf et al.
# Submitted via: ExactAudioCopy v0.95b4
#
DISCID=74121c2b
DTITLE=John Ganapes - Blues You Can Use Backing Tracks
DYEAR=2006
DGENRE=Blues
TTITLE0=Tuning Notes
TTITLE1=Texas Rock (key of E)
TTITLE2=Texas Rock (slow)
TTITLE3=Blues Rock Tune (key of A)
TTITLE4=Blues Rock Tune (slow)
TTITLE5=True Blue (key of A)
TTITLE6=True Blue (slow)
TTITLE7=Swinging the Blues (key of A)
TTITLE8=Swinging the Blues (slow)
TTITLE9=Double Stop Stomp (key of G)
TTITLE10=Double Stop Stomp (slow)
TTITLE11=Delta Mood (key of E)
TTITLE12=Delta Mood (slow)
TTITLE13=Bending the Blues (key of A)
TTITLE14=Bending the Blues (slow)
TTITLE15=Bends, Slides, and Shifts (key of E)
TTITLE16=Bends, Slides, and Shifts (slow)
TTITLE17=Getting Funky (key of Bb)
TTITLE18=Getting Funky (slow)
TTITLE19=Lazy Day Blues (key of Eb)
TTITLE20=Lazy Day Blues (slow)
TTITLE21=Ninth Chord Blues (key of A)
TTITLE22=Ninth Chord Blues (slow)
TTITLE23=Minor Blues (key of Dm)
TTITLE24=Minor Blues (slow)
TTITLE25=More Minor Blues (key of Am)
TTITLE26=More Minor Blues (slow)
TTITLE27=Major Blues (key of G)
TTITLE28=Major Blues (slow)
TTITLE29=Hard Edge Blues (key of C)
TTITLE30=Hard Edge Blues (slow)
TTITLE31=Preaching Gospel Blues (key of A)
TTITLE32=Preaching Gospel Blues (slow)
TTITLE33=Blue Sixths (key of A)
TTITLE34=Blue Sixths (slow)
TTITLE35=Hard Rocker (key of E)
TTITLE36=Hard Rocker (slow)
TTITLE37=Rockin' and Rollin' (key of A)
TTITLE38=Rockin' and Rollin' (slow)
TTITLE39=Delta Child (key of E)
TTITLE40=Delta Child (slow)
TTITLE41=All Forms Blues (key of G)
TTITLE42=All Forms Blues (slow)
EXTD=
EXTT0=
EXTT1=
EXTT2=
EXTT3=
EXTT4=
EXTT5=
EXTT6=
EXTT7=
EXTT8=
EXTT9=
EXTT10=
EXTT11=
EXTT12=
EXTT13=
EXTT14=
EXTT15=
EXTT16=
EXTT17=
EXTT18=
EXTT19=
EXTT20=
EXTT21=
EXTT22=
EXTT23=
EXTT24=
EXTT25=
EXTT26=
EXTT27=
EXTT28=
EXTT29=
EXTT30=
EXTT31=
EXTT32=
EXTT33=
EXTT34=
EXTT35=
EXTT36=
EXTT37=
EXTT38=
EXTT39=
EXTT40=
EXTT41=
EXTT42=
PLAYORDER=
